<mxfile host="app.diagrams.net" agent="Mozilla/5.0 (Macintosh; Intel Mac OS X 10_15_7) AppleWebKit/537.36 (KHTML, like Gecko) Chrome/140.0.0.0 Safari/537.36" version="28.2.5">
  <diagram name="Page-1" id="_U9mAopucfApmZQAOi8n">
    <mxGraphModel dx="1018" dy="643" grid="1" gridSize="10" guides="1" tooltips="1" connect="1" arrows="1" fold="1" page="1" pageScale="1" pageWidth="850" pageHeight="1100" math="0" shadow="0">
      <root>
        <mxCell id="0" />
        <mxCell id="1" parent="0" />
        <mxCell id="p3yNpCpznDg8GB7OF8YU-29" value="" style="rounded=0;whiteSpace=wrap;html=1;" vertex="1" parent="1">
          <mxGeometry x="185" y="30" width="755" height="480" as="geometry" />
        </mxCell>
        <mxCell id="p3yNpCpznDg8GB7OF8YU-1" value="Web Client in Browser" style="rounded=0;whiteSpace=wrap;html=1;fillColor=#fff2cc;strokeColor=#d6b656;" vertex="1" parent="1">
          <mxGeometry x="305" y="130" width="120" height="60" as="geometry" />
        </mxCell>
        <mxCell id="p3yNpCpznDg8GB7OF8YU-14" style="edgeStyle=orthogonalEdgeStyle;rounded=0;orthogonalLoop=1;jettySize=auto;html=1;exitX=0.5;exitY=0.5;exitDx=0;exitDy=0;exitPerimeter=0;entryX=0;entryY=0.5;entryDx=0;entryDy=0;" edge="1" parent="1" source="p3yNpCpznDg8GB7OF8YU-2" target="p3yNpCpznDg8GB7OF8YU-1">
          <mxGeometry relative="1" as="geometry" />
        </mxCell>
        <mxCell id="p3yNpCpznDg8GB7OF8YU-2" value="User" style="shape=umlActor;verticalLabelPosition=bottom;verticalAlign=top;html=1;outlineConnect=0;fillColor=#fff2cc;strokeColor=#d6b656;" vertex="1" parent="1">
          <mxGeometry x="220" y="130" width="30" height="60" as="geometry" />
        </mxCell>
        <mxCell id="p3yNpCpznDg8GB7OF8YU-6" value="Web Client in Browser" style="rounded=0;whiteSpace=wrap;html=1;fillColor=#fff2cc;strokeColor=#d6b656;" vertex="1" parent="1">
          <mxGeometry x="305" y="350" width="120" height="60" as="geometry" />
        </mxCell>
        <mxCell id="p3yNpCpznDg8GB7OF8YU-16" style="edgeStyle=orthogonalEdgeStyle;rounded=0;orthogonalLoop=1;jettySize=auto;html=1;exitX=0.5;exitY=0.5;exitDx=0;exitDy=0;exitPerimeter=0;entryX=0;entryY=0.5;entryDx=0;entryDy=0;" edge="1" parent="1" source="p3yNpCpznDg8GB7OF8YU-8" target="p3yNpCpznDg8GB7OF8YU-6">
          <mxGeometry relative="1" as="geometry" />
        </mxCell>
        <mxCell id="p3yNpCpznDg8GB7OF8YU-8" value="User" style="shape=umlActor;verticalLabelPosition=bottom;verticalAlign=top;html=1;outlineConnect=0;fillColor=#fff2cc;strokeColor=#d6b656;" vertex="1" parent="1">
          <mxGeometry x="220" y="350" width="30" height="60" as="geometry" />
        </mxCell>
        <mxCell id="p3yNpCpznDg8GB7OF8YU-9" value="Web Client in Browser" style="rounded=0;whiteSpace=wrap;html=1;fillColor=#fff2cc;strokeColor=#d6b656;" vertex="1" parent="1">
          <mxGeometry x="305" y="240" width="120" height="60" as="geometry" />
        </mxCell>
        <mxCell id="p3yNpCpznDg8GB7OF8YU-15" style="edgeStyle=orthogonalEdgeStyle;rounded=0;orthogonalLoop=1;jettySize=auto;html=1;exitX=0.5;exitY=0.5;exitDx=0;exitDy=0;exitPerimeter=0;" edge="1" parent="1" source="p3yNpCpznDg8GB7OF8YU-11" target="p3yNpCpznDg8GB7OF8YU-9">
          <mxGeometry relative="1" as="geometry" />
        </mxCell>
        <mxCell id="p3yNpCpznDg8GB7OF8YU-11" value="User" style="shape=umlActor;verticalLabelPosition=bottom;verticalAlign=top;html=1;outlineConnect=0;fillColor=#fff2cc;strokeColor=#d6b656;" vertex="1" parent="1">
          <mxGeometry x="220" y="240" width="30" height="60" as="geometry" />
        </mxCell>
        <mxCell id="p3yNpCpznDg8GB7OF8YU-17" value="&lt;b&gt;&lt;font style=&quot;font-size: 40px;&quot;&gt;.......&lt;/font&gt;&lt;/b&gt;" style="text;html=1;align=center;verticalAlign=middle;whiteSpace=wrap;rounded=0;" vertex="1" parent="1">
          <mxGeometry x="335" y="450" width="60" height="30" as="geometry" />
        </mxCell>
        <mxCell id="p3yNpCpznDg8GB7OF8YU-18" value="" style="rounded=0;whiteSpace=wrap;html=1;fillColor=#f5f5f5;fontColor=#333333;strokeColor=#666666;" vertex="1" parent="1">
          <mxGeometry x="510" y="110" width="390" height="350" as="geometry" />
        </mxCell>
        <mxCell id="p3yNpCpznDg8GB7OF8YU-27" style="edgeStyle=orthogonalEdgeStyle;rounded=0;orthogonalLoop=1;jettySize=auto;html=1;exitX=1;exitY=0.25;exitDx=0;exitDy=0;" edge="1" parent="1" source="p3yNpCpznDg8GB7OF8YU-19" target="p3yNpCpznDg8GB7OF8YU-25">
          <mxGeometry relative="1" as="geometry" />
        </mxCell>
        <mxCell id="p3yNpCpznDg8GB7OF8YU-28" style="edgeStyle=orthogonalEdgeStyle;rounded=0;orthogonalLoop=1;jettySize=auto;html=1;exitX=1;exitY=0.75;exitDx=0;exitDy=0;" edge="1" parent="1" source="p3yNpCpznDg8GB7OF8YU-19" target="p3yNpCpznDg8GB7OF8YU-26">
          <mxGeometry relative="1" as="geometry" />
        </mxCell>
        <mxCell id="p3yNpCpznDg8GB7OF8YU-19" value="Docs&amp;nbsp;&lt;div&gt;Service&lt;/div&gt;" style="rounded=0;whiteSpace=wrap;html=1;fillColor=#dae8fc;strokeColor=#6c8ebf;" vertex="1" parent="1">
          <mxGeometry x="540" y="250" width="120" height="90" as="geometry" />
        </mxCell>
        <mxCell id="p3yNpCpznDg8GB7OF8YU-20" value="&lt;font style=&quot;font-size: 18px;&quot;&gt;Server&lt;/font&gt;" style="text;html=1;align=center;verticalAlign=middle;whiteSpace=wrap;rounded=0;" vertex="1" parent="1">
          <mxGeometry x="650" y="120" width="110" height="30" as="geometry" />
        </mxCell>
        <mxCell id="p3yNpCpznDg8GB7OF8YU-21" style="rounded=0;orthogonalLoop=1;jettySize=auto;html=1;exitX=1;exitY=0.5;exitDx=0;exitDy=0;entryX=0.25;entryY=1;entryDx=0;entryDy=0;" edge="1" parent="1" source="p3yNpCpznDg8GB7OF8YU-17" target="p3yNpCpznDg8GB7OF8YU-19">
          <mxGeometry relative="1" as="geometry" />
        </mxCell>
        <mxCell id="p3yNpCpznDg8GB7OF8YU-24" style="rounded=0;orthogonalLoop=1;jettySize=auto;html=1;exitX=1;exitY=0.5;exitDx=0;exitDy=0;entryX=0.25;entryY=0;entryDx=0;entryDy=0;" edge="1" parent="1" source="p3yNpCpznDg8GB7OF8YU-1" target="p3yNpCpznDg8GB7OF8YU-19">
          <mxGeometry relative="1" as="geometry" />
        </mxCell>
        <mxCell id="p3yNpCpznDg8GB7OF8YU-23" style="rounded=0;orthogonalLoop=1;jettySize=auto;html=1;exitX=1;exitY=0.5;exitDx=0;exitDy=0;" edge="1" parent="1" source="p3yNpCpznDg8GB7OF8YU-9" target="p3yNpCpznDg8GB7OF8YU-19">
          <mxGeometry relative="1" as="geometry" />
        </mxCell>
        <mxCell id="p3yNpCpznDg8GB7OF8YU-22" style="rounded=0;orthogonalLoop=1;jettySize=auto;html=1;exitX=1;exitY=0.5;exitDx=0;exitDy=0;entryX=0;entryY=0.75;entryDx=0;entryDy=0;" edge="1" parent="1" source="p3yNpCpznDg8GB7OF8YU-6" target="p3yNpCpznDg8GB7OF8YU-19">
          <mxGeometry relative="1" as="geometry" />
        </mxCell>
        <mxCell id="p3yNpCpznDg8GB7OF8YU-25" value="Database" style="shape=cylinder3;whiteSpace=wrap;html=1;boundedLbl=1;backgroundOutline=1;size=15;fillColor=#dae8fc;strokeColor=#6c8ebf;" vertex="1" parent="1">
          <mxGeometry x="770" y="170" width="80" height="100" as="geometry" />
        </mxCell>
        <mxCell id="p3yNpCpznDg8GB7OF8YU-26" value="Cache service&lt;div&gt;(Redis)&lt;/div&gt;" style="shape=cylinder3;whiteSpace=wrap;html=1;boundedLbl=1;backgroundOutline=1;size=15;fillColor=#dae8fc;strokeColor=#6c8ebf;" vertex="1" parent="1">
          <mxGeometry x="770" y="330" width="80" height="100" as="geometry" />
        </mxCell>
        <mxCell id="p3yNpCpznDg8GB7OF8YU-30" value="&lt;font style=&quot;font-size: 19px;&quot;&gt;Deployment Diagram&lt;/font&gt;" style="text;html=1;align=center;verticalAlign=middle;whiteSpace=wrap;rounded=0;" vertex="1" parent="1">
          <mxGeometry x="457.5" y="50" width="210" height="30" as="geometry" />
        </mxCell>
      </root>
    </mxGraphModel>
  </diagram>
</mxfile>
